<?xml version="1.0" encoding="UTF-8"?>
<!-- Created with Inkscape (http://www.inkscape.org/) -->
<svg width="48mm" height="48mm" version="1.1" viewBox="0 0 48 48" xmlns="http://www.w3.org/2000/svg" xmlns:cc="http://creativecommons.org/ns#" xmlns:dc="http://purl.org/dc/elements/1.1/" xmlns:rdf="http://www.w3.org/1999/02/22-rdf-syntax-ns#">
 <metadata>
  <rdf:RDF>
   <cc:Work rdf:about="">
    <dc:format>image/svg+xml</dc:format>
    <dc:type rdf:resource="http://purl.org/dc/dcmitype/StillImage"/>
    <dc:title/>
   </cc:Work>
  </rdf:RDF>
 </metadata>
 <g transform="translate(-75.904 -120.72)">
  <rect x="75.904" y="120.72" width="48" height="48" fill="#fff" stroke-width=".42882"/>
  <path d="m97.895 120.72c-2.1526 0-3.8886 0.61098-5.208 1.8335-1.3193 1.1506-1.9792 2.8409-1.9792 5.0701 0 2.445 1.1111 4.3503 3.3331 5.7166s5.6941 2.8405 10.416 4.4226c4.7218 1.6539 8.5408 3.2362 11.457 4.7463 2.9859 1.5101 5.5554 3.7034 7.7081 6.5798 0.0972 0.12984 0.18937 0.26335 0.28215 0.39655v-20.891h-17.26c-0.13888-2.445-1.0069-4.3508-2.604-5.7171-1.5971-1.4382-3.6456-2.1572-6.1454-2.1572zm-21.991 20.371v19h14.7c0.27775 2.8045 1.2151 4.9616 2.8122 6.4717 1.5971 1.4382 3.68 2.1572 6.2492 2.1572 2.6387 0 4.7221-0.61097 6.2498-1.8334 1.5276-1.2944 2.2913-3.056 2.2913-5.2852 0-1.8697-0.62492-3.4157-1.8748-4.6382-1.1805-1.2225-2.6734-2.2294-4.4788-3.0204-1.736-0.79101-4.2357-1.6899-7.4993-2.6967-4.7218-1.5101-8.5757-3.0205-11.562-4.5307-2.6157-1.3229-4.9117-3.1974-6.888-5.624z" fill="#ff6347" stroke-width=".26925"/>
 </g>
</svg>
